HIERARCHY
ROOT hip
{
  OFFSET 0 0 0
  CHANNELS 6 Xposition Yposition Zposition Zrotation Yrotation Xrotation
  JOINT abdomen
  {
    OFFSET 0 20.6881 -0.73152
    CHANNELS 3 Zrotation Xrotation Yrotation
    JOINT chest
    {
      OFFSET 0 11.7043 -0.48768
      CHANNELS 3 Zrotation Xrotation Yrotation
      JOINT neck
      {
        OFFSET 0 22.1894 -2.19456
        CHANNELS 3 Zrotation Xrotation Yrotation
        JOINT head
        {
          OFFSET -0.24384 7.07133 1.2192
          CHANNELS 3 Zrotation Xrotation Yrotation
          JOINT leftEye
          {
            OFFSET 4.14528 8.04674 8.04672
            CHANNELS 3 Zrotation Xrotation Yrotation
            End Site
            {
              OFFSET 1 0 0
            }
          }
          JOINT rightEye
          {
            OFFSET -3.6576 8.04674 8.04672
            CHANNELS 3 Zrotation Xrotation Yrotation
            End Site
            {
              OFFSET 1 0 0
            }
          }
        }
      }
      JOINT rCollar
      {
        OFFSET -2.68224 19.2634 -4.8768
        CHANNELS 3 Zrotation Xrotation Yrotation
        JOINT rShldr
        {
          OFFSET -8.77824 -1.95073 1.46304
          CHANNELS 3 Zrotation Xrotation Yrotation
          JOINT rForeArm
          {
            OFFSET -28.1742 -1.7115 0.48768
            CHANNELS 3 Zrotation Xrotation Yrotation
            JOINT rHand
            {
              OFFSET -22.5879 0.773209 7.07136
              CHANNELS 3 Zrotation Xrotation Yrotation
              JOINT rThumb1
              {
                OFFSET -1.2192 -0.487915 3.41376
                CHANNELS 3 Zrotation Xrotation Yrotation
                JOINT rThumb2
                {
                  OFFSET -3.37035 -0.52449 3.41376
                  CHANNELS 3 Zrotation Xrotation Yrotation
                  End Site
                  {
                    OFFSET -1.78271 -1.18214 1.43049
                  }
                }
              }
              JOINT rIndex1
              {
                OFFSET -7.75947 0.938293 5.60832
                CHANNELS 3 Zrotation Xrotation Yrotation
                JOINT rIndex2
                {
                  OFFSET -2.54057 -0.884171 1.56538
                  CHANNELS 3 Zrotation Xrotation Yrotation
                  End Site
                  {
                    OFFSET -1.62519 -0.234802 1.16502
                  }
                }
              }
              JOINT rMid1
              {
                OFFSET -8.24714 1.18213 3.41376
                CHANNELS 3 Zrotation Xrotation Yrotation
                JOINT rMid2
                {
                  OFFSET -3.10165 -0.590103 1.0647
                  CHANNELS 3 Zrotation Xrotation Yrotation
                  End Site
                  {
                    OFFSET -2.48547 -0.328903 0.83742
                  }
                }
              }
              JOINT rRing1
              {
                OFFSET -8.82822 0.546677 1.51678
                CHANNELS 3 Zrotation Xrotation Yrotation
                JOINT rRing2
                {
                  OFFSET -2.60934 -0.819778 -0.0198488
                  CHANNELS 3 Zrotation Xrotation Yrotation
                  End Site
                  {
                    OFFSET -2.33842 -0.294052 0.168128
                  }
                }
              }
              JOINT rPinky1
              {
                OFFSET -8.27202 -0.0477905 -0.4584
                CHANNELS 3 Zrotation Xrotation Yrotation
                JOINT rPinky2
                {
                  OFFSET -1.82734 -0.647385 -0.700984
                  CHANNELS 3 Zrotation Xrotation Yrotation
                  End Site
                  {
                    OFFSET -1.69225 -0.51767 -0.607171
                  }
                }
              }
            }
          }
        }
      }
      JOINT lCollar
      {
        OFFSET 2.68224 19.2634 -4.8768
        CHANNELS 3 Zrotation Xrotation Yrotation
        JOINT lShldr
        {
          OFFSET 8.77824 -1.95073 1.46304
          CHANNELS 3 Zrotation Xrotation Yrotation
          JOINT lForeArm
          {
            OFFSET 28.1742 -1.7115 0.48768
            CHANNELS 3 Zrotation Xrotation Yrotation
            JOINT lHand
            {
              OFFSET 22.5879 0.773209 7.07136
              CHANNELS 3 Zrotation Xrotation Yrotation
              JOINT lThumb1
              {
                OFFSET 1.2192 -0.487915 3.41376
                CHANNELS 3 Zrotation Xrotation Yrotation
                JOINT lThumb2
                {
                  OFFSET 3.37035 -0.52449 3.41376
                  CHANNELS 3 Zrotation Xrotation Yrotation
                  End Site
                  {
                    OFFSET 1.78271 -1.18214 1.43049
                  }
                }
              }
              JOINT lIndex1
              {
                OFFSET 7.75947 0.938293 5.60832
                CHANNELS 3 Zrotation Xrotation Yrotation
                JOINT lIndex2
                {
                  OFFSET 2.54057 -0.884171 1.56538
                  CHANNELS 3 Zrotation Xrotation Yrotation
                  End Site
                  {
                    OFFSET 1.62519 -0.234802 1.16502
                  }
                }
              }
              JOINT lMid1
              {
                OFFSET 8.24714 1.18213 3.41376
                CHANNELS 3 Zrotation Xrotation Yrotation
                JOINT lMid2
                {
                  OFFSET 3.10165 -0.590103 1.0647
                  CHANNELS 3 Zrotation Xrotation Yrotation
                  End Site
                  {
                    OFFSET 2.48547 -0.328903 0.83742
                  }
                }
              }
              JOINT lRing1
              {
                OFFSET 8.82822 0.546677 1.51678
                CHANNELS 3 Zrotation Xrotation Yrotation
                JOINT lRing2
                {
                  OFFSET 2.60934 -0.819778 -0.0198488
                  CHANNELS 3 Zrotation Xrotation Yrotation
                  End Site
                  {
                    OFFSET 2.33842 -0.294052 0.168128
                  }
                }
              }
              JOINT lPinky1
              {
                OFFSET 8.27202 -0.0477905 -0.4584
                CHANNELS 3 Zrotation Xrotation Yrotation
                JOINT lPinky2
                {
                  OFFSET 1.82734 -0.647385 -0.700984
                  CHANNELS 3 Zrotation Xrotation Yrotation
                  End Site
                  {
                    OFFSET 1.69225 -0.51767 -0.607171
                  }
                }
              }
            }
          }
        }
      }
    }
  }
  JOINT rButtock
  {
    OFFSET -8.77824 4.35084 1.2192
    CHANNELS 3 Zrotation Xrotation Yrotation
    JOINT rThigh
    {
      OFFSET 0 -1.70687 -2.19456
      CHANNELS 3 Zrotation Xrotation Yrotation
      JOINT rShin
      {
        OFFSET 0 -36.8199 0.73152
        CHANNELS 3 Zrotation Xrotation Yrotation
        JOINT rFoot
        {
          OFFSET 0.73152 -45.1104 -5.12064
          CHANNELS 3 Zrotation Xrotation Yrotation
          End Site
          {
            OFFSET -1.1221 -3.69964 12.103
          }
        }
      }
    }
  }
  JOINT lButtock
  {
    OFFSET 8.77824 4.35084 1.2192
    CHANNELS 3 Zrotation Xrotation Yrotation
    JOINT lThigh
    {
      OFFSET 0 -1.70687 -2.19456
      CHANNELS 3 Zrotation Xrotation Yrotation
      JOINT lShin
      {
        OFFSET 0 -36.8199 0.73152
        CHANNELS 3 Zrotation Xrotation Yrotation
        JOINT lFoot
        {
          OFFSET -0.73152 -45.1104 -5.12064
          CHANNELS 3 Zrotation Xrotation Yrotation
          End Site
          {
            OFFSET 1.1221 -3.69964 12.103
          }
        }
      }
    }
  }
}
MOTION
Frames:	4
Frame Time:	0.03333
0.011987195436783941 35.55516785662126 0.020406444125456027 -2.66666841506958 6.819036960601807 4.382540702819824 -2.501476287841797 15.028705596923828 3.928443193435669 2.6841676235198975 -9.775551795959473 1.2456252574920654 -5.061441898345947 15.597573280334473 -3.447004556655884 9.03394889831543 -26.3402156829834 -4.992270469665527 -0.019730882719159126 0.027325838804244995 -0.020649176090955734 0.04891815409064293 0.027826348319649696 -0.021251831203699112 0.0181523859500885 0.0004004482179880142 -0.011762472800910473 46.427188873291016 35.97198486328125 17.491100311279297 -28.186649322509766 -31.982847213745117 62.751319885253906 -1.5184078216552734 -10.996500015258789 -1.4828020334243774 -0.02517114020884037 -0.02080921269953251 -0.04858778044581413 0.005171230062842369 0.007026837673038244 0.024330252781510353 0.006355389952659607 0.0018098173895850778 0.007561360951513052 7.735840320587158 5.4785051345825195 0.43247321248054504 -0.009137662127614021 -0.0385470986366272 0.0021089452784508467 2.913827896118164 0.9780182838439941 0.09704160690307617 -0.007575965020805597 -0.0026679448783397675 0.0037821149453520775 10.265604019165039 0.7308410406112671 0.020647915080189705 0.02402639389038086 -0.0023335583973675966 0.015114814043045044 2.264995813369751 -0.7347779273986816 -0.24684448540210724 -0.023688942193984985 0.024024968966841698 -0.04094521328806877 -52.55377960205078 39.6099853515625 -29.26757049560547 27.486007690429688 -30.53736686706543 -59.102333068847656 1.8462644815444946 -14.044568061828613 2.0125043392181396 0.012356243096292019 0.00579123105853796 -0.02535231225192547 -0.00027346701244823635 0.07052267342805862 -0.046445753425359726 -0.00013665521692018956 0.001936594257131219 -0.05165712907910347 -7.733616828918457 5.4604949951171875 -0.4234983026981354 -0.015879539772868156 -0.004002221394330263 0.017904022708535194 -2.9244630336761475 0.9660378694534302 -0.11160999536514282 -0.009799501858651638 -0.0043328008614480495 0.01760045625269413 -10.265892028808594 0.718342661857605 -0.025558995082974434 4.8550395149504766e-05 -0.01621801033616066 -0.017958004027605057 -2.2235586643218994 -0.7373945116996765 0.18171963095664978 0.0009310509776696563 0.012174581177532673 -0.02000209502875805 -27.715774536132812 -38.866817474365234 -23.298954010009766 -1.7374125719070435 65.19537353515625 2.793841600418091 -4.6633620262146 -10.510477066040039 -10.10291862487793 -0.037052690982818604 -0.0054065631702542305 0.01749085634946823 33.235286712646484 -37.901702880859375 26.43698501586914 1.7535433769226074 65.89910888671875 -2.952195167541504 5.208784103393555 -10.537050247192383 13.978415489196777
0.003028548566665966 35.60074570895276 0.109250196455463 -2.7135188579559326 6.553686618804932 4.391070365905762 -2.5565989017486572 15.06114387512207 3.930561065673828 2.6629815101623535 -9.843006134033203 1.2823643684387207 -5.142831325531006 15.62402057647705 -3.3342485427856445 9.080689430236816 -26.321468353271484 -4.952245235443115 -0.04685154929757118 0.030331995338201523 -0.034855715930461884 0.06544893234968185 0.06437129527330399 -0.030478034168481827 0.01338973082602024 0.026570111513137817 -0.0695735365152359 46.11894989013672 35.97976303100586 17.796125411987305 -28.218181610107422 -31.95551300048828 62.513492584228516 -1.4531069993972778 -10.795629501342773 -1.4562559127807617 -0.046203915029764175 -0.04923910275101662 -0.0657208263874054 0.03827865794301033 0.010542909614741802 0.06340785324573517 -0.0029252793174237013 -0.015618938952684402 0.024680549278855324 7.695096492767334 5.459796905517578 0.42850834131240845 -0.028198717162013054 -0.09740418940782547 0.025695037096738815 2.962496757507324 0.979677140712738 0.04308849573135376 0.013014613650739193 0.028385046869516373 0.03213777393102646 10.310760498046875 0.7479044795036316 -0.0281045101583004 0.05921151861548424 -0.005976524669677019 0.008236220106482506 2.2605175971984863 -0.7665956020355225 -0.2958153188228607 -0.048350442200899124 0.0673903077840805 0.003152756253257394 -52.527435302734375 39.6323356628418 -29.321922302246094 27.596397399902344 -30.708498001098633 -59.1146354675293 1.8791112899780273 -14.200826644897461 2.030291795730591 -0.001226589665748179 -0.0037845850456506014 -0.054335203021764755 -0.024425599724054337 0.1274806261062622 -0.06842144578695297 0.007946540601551533 0.008630547672510147 -0.11933808773756027 -7.761744499206543 5.499144554138184 -0.37104156613349915 -0.08145538717508316 0.012898714281618595 -0.008442552760243416 -2.96441388130188 0.9815564155578613 -0.12929262220859528 0.013403195887804031 -0.001120126573368907 0.03349563106894493 -10.286958694458008 0.7503364682197571 -0.012441130355000496 -0.040192194283008575 -0.006734032183885574 -0.0303348358720541 -2.244375228881836 -0.7235180139541626 0.16137966513633728 0.017681583762168884 0.042535096406936646 -0.022227179259061813 -27.844911575317383 -38.98154830932617 -23.329736709594727 -1.6693247556686401 65.19873809814453 2.7120563983917236 -4.482621669769287 -10.536449432373047 -9.9589262008667 -0.01849796250462532 0.03729022294282913 -0.010777696035802364 33.1536750793457 -37.80400466918945 26.330102920532227 1.8148624897003174 65.8207015991211 -3.028137445449829 5.178961277008057 -10.554110527038574 14.123300552368164
0.21188602171042978 39.24551906517915 -0.038706361861344914 -8.127718925476074 -12.868233680725098 6.447461128234863 3.5463736057281494 8.033147811889648 5.074871063232422 2.4233922958374023 -5.941554546356201 1.2130309343338013 -7.282810688018799 15.903474807739258 -10.131250381469727 12.473697662353516 -20.85189437866211 -16.672771453857422 -0.516573965549469 0.17292486131191254 0.1095208078622818 0.025985034182667732 -0.16014309227466583 -0.07660192251205444 0.016456684097647667 0.08930729329586029 -0.2847726345062256 64.94384002685547 33.19160461425781 5.727081298828125 -13.939569473266602 -4.7867865562438965 25.555335998535156 0.6189988255500793 9.737509727478027 1.5914522409439087 -0.1920749694108963 -0.024651935324072838 -0.008937210775911808 0.5193340182304382 0.12961246073246002 0.08352353423833847 -0.12047944962978363 0.1370791494846344 -0.342581182718277 7.501203536987305 5.796841621398926 0.21889440715312958 -0.2945294678211212 0.1980292946100235 -0.30871888995170593 3.343658447265625 0.8808673024177551 0.0746631771326065 -0.003269580192863941 -0.09835902601480484 -0.02860417775809765 9.948012351989746 0.9012856483459473 -0.22702379524707794 0.6299669742584229 -0.1373860388994217 0.07341174781322479 2.3813014030456543 -0.9971330761909485 -0.4479580819606781 -0.1375783234834671 0.25811323523521423 0.1987152248620987 -75.10493469238281 29.15988540649414 -3.8739657402038574 11.03001880645752 -3.4565658569335938 -21.245773315429688 -0.2689141035079956 19.958263397216797 -2.429537534713745 -0.02361922897398472 0.07927609235048294 0.04534284025430679 -0.47080567479133606 -0.0034248067531734705 -0.10175236314535141 0.37673383951187134 -0.0763147696852684 -0.3959489166736603 -8.128059387207031 5.4364728927612305 -0.4457816779613495 -0.10812246799468994 0.13941024243831635 -0.22061383724212646 -2.919257640838623 1.2547626495361328 0.4110669195652008 -0.46981751918792725 -0.30828985571861267 0.29829132556915283 -10.449037551879883 0.7796185612678528 -0.11128847301006317 0.4093037545681 0.06148048862814903 0.05379806458950043 -2.1501269340515137 -0.9948015213012695 0.21140801906585693 -0.037643346935510635 0.14693476259708405 -0.22936104238033295 3.2920265197753906 -7.961535930633545 2.3483686447143555 -1.0711215734481812 39.893035888671875 2.0479865074157715 -9.37621021270752 -17.16855239868164 -23.631561279296875 -0.47238636016845703 0.10938862711191177 -0.34149789810180664 18.174711227416992 -45.00226974487305 6.04890251159668 2.019709587097168 51.89525604248047 -2.3111894130706787 1.7519479990005493 -1.912670612335205 4.537798881530762
0.11746868827534696 42.51190677157601 0.31363828462301874 -9.781054496765137 -14.830897331237793 5.237452030181885 3.5257821083068848 7.045670986175537 3.788111448287964 1.9335671663284302 -7.118180751800537 1.163446307182312 -9.315688133239746 15.570019721984863 -11.070685386657715 14.309674263000488 -17.19624137878418 -20.40853500366211 -0.4601926803588867 0.09023655951023102 0.1426292359828949 0.08704478293657303 -0.3185085356235504 -0.06249116361141205 -0.2705952525138855 0.4197198748588562 -0.19046911597251892 68.01821899414062 31.96900177001953 3.573674201965332 -12.350493431091309 -6.353962421417236 22.923404693603516 -0.1340062916278839 5.396998882293701 0.7793576717376709 -0.11988823860883713 -0.2630898952484131 0.11217842251062393 0.3458390235900879 0.26680999994277954 -0.12750114500522614 0.299202561378479 0.010199638083577156 -0.28942570090293884 7.650999069213867 5.590934753417969 0.08423945307731628 0.13948103785514832 -0.12247003614902496 -0.4775574207305908 2.7897729873657227 1.1142971515655518 -0.19004260003566742 0.3482438623905182 -0.41619497537612915 0.348080575466156 10.530267715454102 0.7840772867202759 -0.3031720519065857 0.6540476679801941 -0.3505772352218628 0.47945135831832886 2.3954873085021973 -0.911331832408905 -0.402888685464859 -0.09221446514129639 -0.06037183851003647 -0.06295672059059143 -77.66127014160156 23.955419540405273 -2.1603989601135254 10.835724830627441 -4.729465484619141 -20.090322494506836 0.5467374920845032 23.096511840820312 -3.303875684738159 0.11876779049634933 0.3286612033843994 -0.016795914620161057 -0.4880581200122833 -0.26360616087913513 -0.4621830880641937 0.24148719012737274 -0.1980164796113968 -0.2501889765262604 -7.91044807434082 5.434842109680176 -0.3036562502384186 -0.15772739052772522 0.0499083548784256 -0.15956822037696838 -3.2421276569366455 0.6423323154449463 -0.038119275122880936 -0.10397088527679443 -0.018051452934741974 0.3819649815559387 -10.644283294677734 0.6478455066680908 -0.2523680329322815 0.313262403011322 0.17147548496723175 -0.558954119682312 -2.432443857192993 -0.5561051368713379 -0.16283701360225677 0.13829410076141357 0.5738157629966736 0.5425930619239807 2.909527063369751 -12.363978385925293 -0.18355692923069 -0.6195926666259766 43.41400146484375 1.4264503717422485 -9.723124504089355 -19.359947204589844 -22.018339157104492 -0.3353574872016907 -0.12123563885688782 -0.4411379098892212 15.054729461669922 -44.819393157958984 1.9006818532943726 1.3796939849853516 48.91770935058594 -1.1258673667907715 -0.03382508084177971 -2.5150411128997803 -0.3003990054130554
